<svg width="200" height="196" viewBox="0 0 200 196" fill="none" xmlns="http://www.w3.org/2000/svg">
<g clip-path="url(#clip0_191_931)">
<path d="M164.804 39.2696C175.244 39.2696 183.708 30.7643 183.708 20.2725C183.708 9.78068 175.244 1.27539 164.804 1.27539C154.363 1.27539 145.899 9.78068 145.899 20.2725C145.899 30.7643 154.363 39.2696 164.804 39.2696Z" stroke="#F8F8F8" stroke-miterlimit="10" stroke-dasharray="12.25 12.25"/>
<path d="M46.5343 19.4661C40.8597 21.9606 35.2182 25.0001 31.2477 29.7788C27.2773 34.5574 25.2887 41.423 27.6697 47.1697C30.8509 54.8461 40.9303 59.3101 40.9766 67.6246C41.0096 73.5796 35.54 78.1278 30.0198 80.2923C24.4995 82.4567 18.3884 83.2365 13.3663 86.4023C5.78916 91.1765 2.23758 100.419 0.78255 109.287C-0.727591 118.495 -0.114717 128.978 6.36897 135.657C14.4267 143.961 27.7534 143.024 39.16 141.254C54.3826 138.892 69.537 136.116 84.6891 133.34C117.906 127.257 151.122 121.171 184.339 115.087C187.901 114.434 191.605 113.721 194.499 111.536C200.247 107.194 200.732 98.2326 197.392 91.8345C194.052 85.4364 187.872 81.0898 181.735 77.328C175.597 73.5663 169.116 70.0083 164.519 64.4543C159.923 58.9003 157.637 50.6767 161.115 44.3539C164.063 38.9971 170.395 36.1348 173.155 30.6782C176.792 23.4892 172.606 14.3086 166.007 9.71828C159.407 5.12796 76.5189 6.29105 46.5343 19.4661Z" fill="#F8F8F8"/>
<path d="M121.87 149.818H77.7778V179.726H121.87V149.818Z" fill="#4BB9AD"/>
<path d="M26.5542 62.7529H173.095C176.096 62.7529 178.529 65.1965 178.529 68.2139V156.544C178.529 159.559 176.098 162.005 173.095 162.005H26.5542C23.5537 162.005 21.1199 159.562 21.1199 156.544V68.2139C21.1199 65.1965 23.5515 62.7529 26.5542 62.7529Z" fill="#ACE5DF"/>
<path d="M174.261 66.9622H25.3835V157.794H174.261V66.9622Z" fill="white"/>
<path d="M65.873 178.397H129.365C133.869 178.397 137.522 182.068 137.522 186.594H57.7161C57.7161 182.068 61.3691 178.397 65.873 178.397Z" fill="#ACE5DF"/>
<path d="M55.7319 74.4945H30.8201V99.5286H55.7319V74.4945Z" fill="#ACE5DF"/>
<path d="M169.268 105.51H74.03C72.9343 105.51 72.0459 104.617 72.0459 103.516C72.0459 102.415 72.9343 101.522 74.03 101.522H169.268C170.364 101.522 171.252 102.415 171.252 103.516C171.252 104.617 170.364 105.51 169.268 105.51Z" fill="#F8F8F8"/>
<path d="M102.69 111.713H74.03C72.9343 111.713 72.0459 110.821 72.0459 109.719C72.0459 108.618 72.9343 107.726 74.03 107.726H102.69C103.785 107.726 104.674 108.618 104.674 109.719C104.674 110.821 103.785 111.713 102.69 111.713Z" fill="#F8F8F8"/>
<path d="M70.0617 101.522H57.7161V113.929H70.0617V101.522Z" fill="#ACE5DF"/>
<path d="M171.252 74.4945H57.7161V99.5286H171.252V74.4945Z" fill="#F8F8F8"/>
<path d="M55.7319 101.522H30.8201V154.028H55.7319V101.522Z" fill="#F8F8F8"/>
<path d="M167.11 131.874H61.8585C59.5701 131.874 57.7161 130.01 57.7161 127.711V122.963C57.7161 120.664 59.5701 118.8 61.8585 118.8H167.112C169.4 118.8 171.254 120.664 171.254 122.963V127.711C171.252 130.01 169.398 131.874 167.11 131.874Z" stroke="#ACE5DF" stroke-miterlimit="10"/>
<path d="M133.285 153.917H62.0634C59.7221 153.917 57.8262 152.009 57.8262 149.659V138.681C57.8262 136.329 59.7243 134.423 62.0634 134.423H133.283C135.624 134.423 137.52 136.331 137.52 138.681V149.659C137.522 152.009 135.624 153.917 133.285 153.917Z" fill="#ACE5DF"/>
<path d="M168.816 154.028H142.824C141.358 154.028 140.167 152.833 140.167 151.358V137.202C140.167 135.728 141.356 134.532 142.824 134.532H168.816C170.282 134.532 171.473 135.726 171.473 137.202V151.358C171.473 152.833 170.284 154.028 168.816 154.028Z" fill="#ACE5DF"/>
<path d="M43.3862 63.8606C56.9011 63.8606 67.8571 52.8508 67.8571 39.2696C67.8571 25.6884 56.9011 14.6786 43.3862 14.6786C29.8713 14.6786 18.9153 25.6884 18.9153 39.2696C18.9153 52.8508 29.8713 63.8606 43.3862 63.8606Z" fill="#ACE5DF"/>
<path d="M41.6359 19.3154C45.3374 17.0867 51.5543 19.7961 54.5746 26.0967C57.553 32.3109 56.5786 40.5833 60.3815 46.1572C62.0239 48.5632 64.5812 50.6102 64.6363 53.6807C64.6782 56.0069 63.1108 58.0584 61.2633 58.9556C59.4159 59.8551 57.3392 59.8241 55.3418 59.6535C47.7029 59.0066 39.8921 56.3392 34.3233 50.2314C28.7523 44.1235 25.9944 34.0633 29.1293 25.9461C30.1875 23.2078 31.9093 20.7443 34.202 19.3663C36.497 17.9861 39.3894 17.8178 41.6359 19.2999" fill="#0B4870"/>
<path d="M40.6283 48.8379C37.78 48.8379 25.3219 51.3413 25.5004 60.821C29.9493 63.3244 39.9295 65.9453 46.1442 65.1123C51.4837 64.3967 61.0935 59.2104 61.0935 59.2104C61.0935 59.2104 56.1111 47.7634 45.0772 48.8379C43.1195 53.3086 40.6283 48.8379 40.6283 48.8379Z" fill="#4BB9AD"/>
<path d="M40.1081 43.8488C40.1081 43.8488 40.1081 50.2248 38.8735 51.0555C42.4383 53.4127 43.8096 54.3809 43.8096 54.3809L47.9234 51.3325C46.9644 49.8083 45.8665 46.2038 46.1398 43.1554C42.9873 43.5719 40.1081 43.8488 40.1081 43.8488Z" fill="#FFE3CA"/>
<path d="M53.329 31.8634C53.329 37.8738 48.7589 45.929 43.1218 45.929C37.4847 45.929 32.9146 37.8738 32.9146 31.8634C32.9146 25.853 37.4847 20.9813 43.1218 20.9813C48.7589 20.9791 53.329 25.853 53.329 31.8634Z" fill="#FFE3CA"/>
<path d="M37.9388 22.592C38.0953 26.4402 40.7849 29.8209 44.0565 31.8258C47.3281 33.8307 51.1464 34.7036 54.8876 35.5433C54.1932 32.2689 53.4524 28.9436 51.799 26.037C50.1455 23.1326 47.4141 20.6602 44.1226 20.1462C42.1694 19.8427 40.1676 20.2415 38.3025 20.8928C36.5058 21.522 34.7245 22.4391 33.5869 23.9722C31.6314 26.6085 32.0613 30.2595 32.5816 33.5051C34.7245 30.9175 37.3964 28.773 40.3814 27.2443" fill="#0B4870"/>
<path d="M39.418 70.5068L40.1609 59.9725L31.4814 60.0944L39.418 70.5068Z" fill="#4BB9AD"/>
<path d="M63.7787 61.8667C68.2228 61.8667 71.8254 58.2463 71.8254 53.7804C71.8254 49.3145 68.2228 45.6942 63.7787 45.6942C59.3346 45.6942 55.7319 49.3145 55.7319 53.7804C55.7319 58.2463 59.3346 61.8667 63.7787 61.8667Z" fill="#FFBE55"/>
<path d="M60.4144 52.7326H62.6785V50.1649C62.6785 49.5822 63.1503 49.1082 63.7301 49.1082H63.8271C64.4069 49.1082 64.8787 49.5822 64.8787 50.1649V52.7326H67.1428C67.7226 52.7326 68.1944 53.2067 68.1944 53.7893C68.1944 54.372 67.7226 54.8461 67.1428 54.8461H64.8787V57.3982C64.8787 57.9808 64.4069 58.455 63.8271 58.455H63.7301C63.1503 58.455 62.6785 57.9808 62.6785 57.3982V54.8461H60.4144C59.8346 54.8461 59.3628 54.372 59.3628 53.7893C59.3628 53.2044 59.8324 52.7326 60.4144 52.7326Z" fill="white"/>
<path d="M66.0935 70.0637L66.5344 66.9621C66.5344 66.9621 67.1958 65.1898 67.1958 64.5252C67.1958 63.8606 66.9753 62.9744 66.5344 62.9744C66.314 60.3159 66.0935 58.5436 66.0935 58.5436C66.0935 58.5436 65.6526 58.5436 65.4321 58.9867C65.2117 59.4297 65.4321 60.9805 65.4321 60.9805C65.4321 60.9805 62.7866 62.7528 62.7866 63.4175C62.7866 64.0821 64.1094 67.8483 64.1094 67.8483L63.8889 70.9498L66.0935 70.0637Z" fill="#FFE3CA"/>
<path d="M108.225 127.54L109.559 129.997C109.559 129.997 112.227 131.785 112.227 132.678C112.227 133.57 112.227 134.687 112.227 134.687L110.227 137.144C110.227 137.144 108.45 132.23 108.228 132.454C108.005 133.57 108.005 134.911 107.562 135.135C107.339 133.794 108.007 130.445 107.117 129.328C106.226 128.209 108.225 127.54 108.225 127.54Z" fill="#FFE3CA"/>
<path d="M105.023 189.596L109.012 189.282L108.333 180.598L104.344 180.912L105.023 189.596Z" fill="#FFE3CA"/>
<path d="M109.017 189.268C110.708 190.927 111.918 192.175 111.989 193.065C110.525 194.301 105.719 195.575 103.399 194.414C102.934 191.315 105.029 189.58 105.029 189.58L109.017 189.268Z" fill="#0B4870"/>
<path d="M80.8888 189.405L84.8901 189.405L84.8901 180.694L80.8888 180.694L80.8888 189.405Z" fill="#FFE3CA"/>
<path d="M83.4458 118.047C80.7783 126.311 70.5556 160.036 79.2241 184.379C82.8903 186.946 86.8916 184.489 86.8916 184.489C86.8916 184.489 95.8929 148.644 93.448 134.127C91.0032 119.609 90.6703 118.047 90.6703 118.047H83.4458Z" fill="#0B4870"/>
<path d="M88.0013 91.9167L91.2244 91.9167L91.2244 84.9936L88.0013 84.9936L88.0013 91.9167Z" fill="#FFE3CA"/>
<path d="M84.1401 83.2985C84.1401 86.5862 85.3946 89.2535 88.0312 89.2535C90.6679 89.2535 93.6904 86.5884 93.6904 83.2985C93.6904 80.0109 91.552 77.3435 88.9153 77.3435C86.2786 77.3435 84.1401 80.0109 84.1401 83.2985Z" fill="#FFE3CA"/>
<path d="M85.1125 77.4321C85.8202 80.2767 86.3515 86.852 90.2426 89.1627C92.7184 90.4078 99.9715 83.8302 96.4331 77.9638C92.8947 72.0974 85.4653 75.8326 85.1125 77.4321Z" fill="#0B4870"/>
<path d="M91.2235 91.9164C95.2248 92.3639 101.003 95.2661 101.003 95.2661C101.003 95.2661 107.67 120.728 109.003 128.544C107.004 129.884 106.336 130.553 106.336 130.553L98.7786 105.539L95.8884 118.045H83.4435L80.5533 101.965C80.5533 101.965 61.8849 92.8092 63.4391 70.2519C66.9951 68.6879 66.9951 68.6879 66.9951 68.6879C66.9951 68.6879 66.1066 92.5854 83.4413 92.1379C83.4457 92.1402 89.0013 91.0236 91.2235 91.9164Z" fill="#4BB9AD"/>
<path d="M95.8643 118.047C103.642 131.672 113.422 166.288 109.866 185.274C106.199 188.289 103.199 185.274 103.199 185.274C103.199 185.274 89.8634 156.017 90.0861 135.022C89.1977 122.516 90.0839 118.047 90.0839 118.047H95.8643Z" fill="#0B4870"/>
<path d="M84.8899 189.405C86.4463 191.193 87.5574 192.531 87.5574 193.426C86.001 194.543 81.1112 195.436 78.889 194.095C78.6663 190.969 80.8885 189.405 80.8885 189.405H84.8899Z" fill="#0B4870"/>
<path d="M96.5168 78.0392C97.8396 80.6977 100.706 88.6731 104.674 87.5654C98.9419 92.8824 87.6985 92.4393 84.8325 91.3316C86.5962 86.0146 86.1773 81.1585 86.1773 81.1585L96.5168 78.0392Z" fill="#0B4870"/>
<path d="M85.9347 76.4884C85.2733 76.9315 83.5097 79.1469 83.7301 79.59C83.9506 80.0331 87.9188 82.0269 87.9188 82.0269L85.9347 76.4884Z" fill="#0B4870"/>
</g>
<defs>
<clipPath id="clip0_191_931">
<rect width="200" height="195" fill="white" transform="translate(0 0.5)"/>
</clipPath>
</defs>
</svg>
