<svg width="303" height="206" viewBox="0 0 303 206" fill="none" xmlns="http://www.w3.org/2000/svg">
<path d="M261.015 77.5221C260.867 77.5814 260.778 77.6703 260.659 77.7888C260.185 78.2036 259.741 78.8851 257.993 80.7221C257.341 81.0777 256.185 81.2851 254.971 81.4332C252.719 81.6703 250.259 81.6406 250.259 81.6406L249.163 79.9518L252.185 78.3221C252.185 78.3221 254.496 76.3073 255.622 75.9221C255.593 76.6925 254.585 77.9666 254.585 77.9666C254.585 77.9666 259.563 76.9592 261.015 77.5221Z" fill="#FFE3CA"/>
<path d="M202.378 66.0853C211.267 63.6853 225.845 93.6408 249.904 78.3223C250.971 80.6334 251.682 82.0556 251.682 82.0556C251.682 82.0556 233.133 98.6186 204.956 83.5668C203.356 72.2482 202.378 66.0853 202.378 66.0853Z" fill="#6FCBC1"/>
<path d="M161.756 102.974C161.756 102.974 159.415 106.411 159.771 108.781C160.126 111.152 161.815 109.107 161.815 109.107L162.734 107.241C162.734 107.241 163 107.863 163.267 108.663C163.504 108.011 164.393 102.826 164.393 102.826L161.756 102.974Z" fill="#FFE3CA"/>
<path d="M174.348 157.463C171.03 163.093 165.223 170.915 164.6 176.396C164.423 178.056 163.148 179.389 161.519 179.626C161.519 179.626 159.178 174.441 156.097 167.419C156.393 164.219 160.126 159.478 162.408 155.922C158.497 157.256 152.897 160.1 152.897 160.1L151.237 156.307L170.26 148.1L174.348 157.463Z" fill="#0B4870"/>
<path d="M211.296 180.782C215.119 186.085 219.978 194.53 224.748 197.285C226.2 198.115 226.911 199.804 226.467 201.404C226.467 201.404 220.748 201.463 213.104 201.463C210.289 199.922 207.445 194.589 205.104 191.063C204.748 195.182 205.104 201.463 205.104 201.463H200.985L201.074 180.752H211.296V180.782Z" fill="#0B4870"/>
<path d="M209.548 94.6777C217.045 113.848 225.963 140.87 225.43 144.011C224.897 147.152 214.022 182.559 217.489 185.433C203.978 185.433 197.193 184.9 195.563 181.493C200.511 175.448 216.808 143.922 216.808 143.922C214.704 141.552 199.711 114.085 199.326 109.107C198.941 104.13 201.015 92.7222 201.015 92.7222L209.548 94.6777Z" fill="#0B4870"/>
<path d="M194.704 95.8038C192.452 99.626 185.548 107.715 188.926 117.019C192.274 126.322 195.593 142.263 195.593 142.263C195.593 142.263 178.496 151.359 164.185 143.508C158.793 153.196 170.911 166.233 170.911 166.233L202.2 149.226C204.571 147.952 205.993 145.433 205.874 142.737L204.037 101.67L207.622 92.752L194.704 95.8038Z" fill="#0B4870"/>
<path d="M196.748 65.6407C184.274 67.1222 167.297 79.211 160.393 103.774L165.134 104.93C165.134 104.93 175.356 79.3296 189.252 76.2184C194.171 93.6703 194.674 95.8036 194.674 95.8036L209.519 94.6481L211 82.2333C211.03 82.0555 211.059 81.8777 211.089 81.6999C211.771 77.5814 210.289 73.374 207.267 70.4407L204.659 67.9221L201.015 65.137L196.748 65.6407Z" fill="#4BB9AD"/>
<path d="M201.578 61.7593L203.119 67.0926L201.578 70.0556L195.593 66.7371L196.334 59.3L201.578 61.7593Z" fill="#FFE3CA"/>
<path d="M199.089 53.1075C199.089 55.9223 199.622 60.1594 196.897 60.1594C194.171 60.1594 189.282 55.952 189.282 53.1075C189.282 50.2927 191.474 48.0112 194.171 48.0112C196.867 48.0112 199.089 50.2927 199.089 53.1075Z" fill="#0B4870"/>
<path d="M207.296 55.1223C207.296 59.0631 207.178 63.1223 203.741 63.1223C200.304 63.1223 194.852 62.2335 194.852 55.1223C194.852 51.1816 197.637 48.0112 201.074 48.0112C204.511 48.0112 207.296 51.1816 207.296 55.1223Z" fill="#FFE3CA"/>
<path d="M197.015 53.4926C198.823 52.426 200.897 51.863 203 51.7149C203.8 51.6556 204.571 51.3 205.578 50.7371C207.385 49.7 208.689 47.8334 208.986 45.7593C209.134 44.6926 209.015 43.5371 208.363 42.6778C207.504 41.5519 205.874 41.226 204.511 41.5519C203.119 41.8778 201.934 42.6778 200.778 43.5371C199.623 44.3963 198.497 45.2556 197.163 45.7297C196.037 46.1148 194.793 46.1741 193.637 46.5C191.297 47.1519 189.193 49.1667 189.311 51.7149C189.371 53.3741 190.467 54.8852 192.097 55.2408C193.726 55.5963 195.119 54.6186 196.482 53.8186L197.015 53.4926Z" fill="#0B4870"/>
<path d="M198.111 52.4556C197.222 55.4185 195.741 57.7889 194.259 57.7889C192.778 57.7889 193.074 53.6408 193.074 53.6408L198.111 52.4556Z" fill="#0B4870"/>
<path d="M196.34 59.3314C197.037 58.8733 197.101 57.7368 196.481 56.793C195.861 55.8491 194.793 55.4554 194.095 55.9135C193.398 56.3716 193.335 57.508 193.954 58.4519C194.574 59.3957 195.642 59.7895 196.34 59.3314Z" fill="#FFE3CA"/>
<path d="M194.645 48.5741C193.608 46.7963 192.571 45.0185 191.089 43.5963C189.608 42.1741 187.622 41.137 185.578 41.2556C182.437 41.4333 180.097 44.1296 178.082 46.5593C176.067 48.9889 173.578 51.5963 170.408 51.5074C167.622 51.4185 165.43 49.2556 162.971 47.8926C159.415 45.9667 154.704 45.8778 151.474 48.3074C148.245 50.737 147.119 55.863 149.578 59.063C150.941 60.8407 153.104 61.8482 155.326 62.1741C157.548 62.5 159.8 62.2333 161.993 61.8185C166.467 60.9889 170.941 59.5963 174.704 57.0185C175.682 56.3667 176.689 55.5667 177.874 55.537C178.911 55.5074 179.889 56.0407 180.867 56.4259C183.948 57.6407 187.622 57.2259 190.348 55.3296C193.074 53.4333 194.763 50.1445 194.674 46.8259" fill="#0B4870"/>
<path d="M195.8 60.1297C196.324 60.1297 196.748 59.7052 196.748 59.1815C196.748 58.6579 196.324 58.2334 195.8 58.2334C195.277 58.2334 194.852 58.6579 194.852 59.1815C194.852 59.7052 195.277 60.1297 195.8 60.1297Z" fill="#FFBE55"/>
<path d="M262.052 83.9815C261.459 84.3963 260.067 84.9296 258.407 85.3148C256.748 85.7 255.267 85.8481 254.556 85.7296L254.082 85.4333C254.082 85.4037 254.111 85.3444 254.141 85.3148C254.437 84.8704 256.037 84.2185 258.052 83.7445C260.067 83.2704 261.785 83.1519 262.259 83.4185C262.289 83.4482 262.319 83.4778 262.348 83.5074L262.052 83.9815Z" fill="#ACE5DF"/>
<path d="M255.137 70.3004L254.762 70.3877L258.04 84.471L258.415 84.3837L255.137 70.3004Z" fill="#0B4870"/>
<path d="M249.193 69.5222L249.815 69.9963L255.948 74.7666L259.356 67.7741L259.711 67.0629L259.593 66.9148L249.252 69.3444L249.193 69.5222Z" fill="#4BB9AD"/>
<path d="M259.356 67.7741C258.615 68.3667 256.837 69.0778 254.733 69.5815C252.63 70.0853 250.733 70.2038 249.785 69.9964L249.163 69.5223C249.163 69.463 249.193 69.4038 249.222 69.3445C249.578 68.6927 251.622 67.7741 254.171 67.1815C256.719 66.589 258.941 66.5001 259.563 66.9445C259.622 66.9741 259.652 67.0334 259.682 67.063L259.356 67.7741Z" fill="#ACE5DF"/>
<path d="M260.659 77.7593C260.185 78.1741 259.741 78.8556 257.993 80.6926C257.341 81.0482 256.185 81.2556 254.971 81.4037L254.437 78.4408L260.659 77.7593Z" fill="#FFE3CA"/>
<path d="M194.793 35.8926L196.185 49.1963L203.356 46.1444L194.793 35.8926Z" fill="#FFBE55"/>
<path d="M108.748 195.211C109.874 196.337 121.282 204.93 121.282 204.93L103.889 202.619V196.456L108.748 195.211Z" fill="#0B4870"/>
<path d="M73.8447 178.707L62.2595 190.204L78.5558 184.455V179.507L73.8447 178.707Z" fill="#0B4870"/>
<path d="M93.6964 114.885C93.6964 114.885 75.9483 122.026 65.6371 126.5C61.4001 128.337 59.0297 132.9 59.9779 137.433C63.2964 153.167 71.889 181.226 71.889 181.226L80.689 180.011L77.0149 145.937C76.5705 141.7 78.9112 137.641 82.852 135.952L100.393 128.456L110.674 150.826C112.245 154.263 112.57 158.145 111.593 161.789L101.904 197.878H113.104L126.585 156.1C127.356 153.67 127.563 151.122 127.178 148.604L121.874 114.885H93.6964Z" fill="#4BB9AD"/>
<path d="M60.4816 55.7741C60.0668 55.3296 56.6594 49.6704 57.6372 47.537C58.615 45.4037 62.4668 44.4556 62.4668 44.4556L64.1557 54.3519L60.4816 55.7741Z" fill="#FFE3CA"/>
<path d="M141.785 120.485C141.341 121.67 138.911 127.981 136.837 128.485C135.237 126.263 136.837 122.233 136.837 122.233L134.615 124.515C134.615 124.515 137.963 117.967 139.415 117.967C140.867 117.967 141.785 120.485 141.785 120.485Z" fill="#FFE3CA"/>
<path d="M143.059 122.115C143.059 122.115 142.052 122.974 138.082 118.796C142.052 101.078 133.4 86.2037 127.83 81.2259C127.178 81.8481 121.607 106.796 123.563 119.833C114.319 124.722 97.4001 120.544 89.0149 116.811C90.3186 105.848 96.0964 92.0407 99.3556 81.6703C101.993 73.3148 104.185 67.3888 104.185 67.3888H104.215C104.452 67.3592 106.289 67.0333 108.985 66.7074C111 66.4703 113.459 66.2037 116.156 66.0259C116.156 66.0259 119.978 67.5962 123.563 66.0259C157.637 86.6481 143.059 122.115 143.059 122.115Z" fill="#0B4870"/>
<path d="M124.926 60.2185L124.541 68.9296L116.126 72.6926L113.934 68.4259L117.548 61.9667L124.926 60.2185Z" fill="#FFE3CA"/>
<path d="M115.356 42.4109C120.333 43.8924 126.23 43.8924 127.889 46.9442C129.548 49.9961 129.371 56.2479 128.896 57.6405C128.422 59.0331 121.815 63.0924 121.815 63.0924L115.356 42.4109Z" fill="#0B4870"/>
<path d="M110.437 45.4331C109.756 48.3368 107.534 60.6924 110.437 63.3887C113.341 66.085 122.111 64.2776 123.682 63.3887C125.252 62.4998 126.141 51.2701 126.141 51.2701L110.437 45.4331Z" fill="#FFE3CA"/>
<path d="M117.163 51.9814C114.022 50.6777 110.408 49.1665 108.274 46.5295C107.415 45.4628 106.734 44.1591 106.704 42.7962C106.615 40.2777 108.66 38.1147 111 37.2258C113.341 36.3369 115.919 36.4258 118.437 36.5443C116.897 36.7517 115.771 38.2925 115.711 39.8332C115.652 41.374 116.541 42.8554 117.697 43.8628C118.852 44.8703 120.304 45.5221 121.756 46.0851C122.793 46.4999 123.86 46.8851 124.66 47.6554C125.46 48.4258 125.904 49.6999 125.371 50.6777C124.956 51.4777 124.008 51.8628 123.119 51.8925C122.23 51.9221 120.215 53.0184 116.808 51.8628" fill="#0B4870"/>
<path d="M120.6 48.4258C121.371 51.4184 122.289 55.0924 123.978 54.4702C124.6 55.7147 124.6 58.9147 124.6 58.9147C124.6 58.9147 126.615 58.9739 126.467 58.411C126.319 57.848 126.467 50.9147 126.467 50.9147L125.223 48.4258H120.6Z" fill="#0B4870"/>
<path d="M127.997 56.7523C128.405 55.8773 128.159 54.8988 127.447 54.5668C126.735 54.2347 125.827 54.6749 125.419 55.5499C125.011 56.4249 125.257 57.4034 125.969 57.7355C126.681 58.0675 127.589 57.6273 127.997 56.7523Z" fill="#FFE3CA"/>
<path d="M125.519 58.1442C124.985 58.1442 124.541 57.6998 124.541 57.1664V54.4109C124.541 53.8776 124.985 53.4331 125.519 53.4331C126.052 53.4331 126.497 53.8776 126.497 54.4109V57.1664C126.497 57.6998 126.052 58.1442 125.519 58.1442Z" fill="#0B4870"/>
<path d="M108.956 66.7074C108.896 68.5148 108.274 77.5518 100.422 81.7296C100.067 81.7296 99.6815 81.6999 99.326 81.6703C62.2297 79.8333 58.7334 54.3518 58.7334 54.3518C58.7334 54.3518 61.5186 53.7296 65.1334 53.0481C74.2001 76.2777 92.8964 70.2629 104.156 67.3888H104.185C104.422 67.3592 106.259 67.0333 108.956 66.7074Z" fill="#0B4870"/>
<path d="M126.171 34.2629L116.541 45.0185L124.156 48.574L126.171 34.2629Z" fill="#FFBE55"/>
<path d="M274.615 200.041C280.363 200.041 282.793 195.448 283.771 190.559C284.837 185.048 284.067 179.211 284.067 179.211H265.193C265.193 179.211 265.163 179.448 265.134 179.833C264.748 183.3 263.622 200.041 274.615 200.041Z" fill="#ACE5DF"/>
<path d="M265.163 179.211C265.163 179.626 269.4 179.952 274.585 179.952C279.8 179.952 284.008 179.626 284.008 179.211C284.008 178.796 279.77 178.47 274.585 178.47C269.4 178.47 265.163 178.796 265.163 179.211Z" fill="#ACE5DF"/>
<path d="M249.074 126.915C249.074 126.915 259.03 142.056 264.985 151.3C270.941 160.544 272.511 162.441 273.222 165.433C273.933 168.426 274.585 179.418 274.585 179.418H275.03C275.03 179.418 274.882 170.085 274.348 166.915C273.815 163.863 274.378 162.796 274.822 159.596C275.237 156.396 275.83 151.27 272.571 147.744C269.341 144.189 270.2 140.722 269.045 138.352C267.919 136.011 259.089 133.167 257.963 130.737C256.808 128.337 251.83 126.856 249.074 126.915Z" fill="#4BB9AD"/>
<path d="M249.074 126.915C249.074 126.915 252.215 130.47 254.319 131.685C256.452 132.9 257.459 131.833 259.089 134.737C260.719 137.641 260.778 138.915 262.289 140.426C263.771 141.907 265.548 141.996 265.696 145.256C265.845 148.515 264.985 151.3 264.985 151.3C264.985 151.3 249.696 127.685 249.074 126.915Z" fill="#6FCBC1"/>
<path d="M273.785 179.418H273.341C273.341 179.418 273.193 176.396 272.008 174.915C271.237 173.967 267.948 172.9 264.689 171.596C262.911 170.885 261.104 170.115 259.771 169.256C255.978 166.856 252.393 159.093 252.067 157.73C251.948 157.256 251.919 156.959 251.919 156.752C251.919 156.367 252.096 156.337 252.422 155.952C252.571 155.774 253.045 155.833 253.608 156.011C255.237 156.515 256.63 157.611 257.459 159.093C258.259 160.456 259.504 162.174 261.045 162.589C263.711 163.3 263.504 163.744 264.482 166.47C265.459 169.196 267.948 169.641 271.059 172.841C274.2 176.041 273.785 179.418 273.785 179.418Z" fill="#4BB9AD"/>
<path d="M264.689 171.626C262.911 170.915 261.104 170.144 259.771 169.285C255.978 166.885 252.393 159.122 252.067 157.759C251.948 157.285 251.919 156.989 251.919 156.781C251.919 156.87 252.096 158.085 254.082 158.915C256.126 159.744 256.541 159.744 256.808 161.048C257.074 162.352 257.311 163.715 258.378 163.981C259.445 164.248 260.126 163.033 260.956 165.019C261.815 166.974 262.2 167.656 262.971 167.922C263.741 168.189 264.334 167.774 264.511 169.315C264.6 170.204 264.659 171.063 264.689 171.626Z" fill="#6FCBC1"/>
<path d="M277.045 179.419H277.578C277.578 179.419 278.615 160.693 280.037 158.945C280.956 157.819 283.978 155.804 287.83 154.293C289.963 153.463 292.067 152.545 293.667 151.508C298.141 148.663 302.408 139.478 302.793 137.848C302.911 137.285 302.971 136.93 302.971 136.693C302.971 136.248 302.733 136.189 302.378 135.745C302.2 135.537 301.637 135.596 300.985 135.804C299.059 136.396 297.43 137.73 296.422 139.478C295.474 141.107 293.993 143.122 292.156 143.596C288.985 144.456 289.252 144.959 288.096 148.189C286.941 151.419 283.978 151.922 280.304 155.715C276.571 159.537 277.045 179.419 277.045 179.419Z" fill="#4BB9AD"/>
<path d="M287.83 154.293C289.963 153.463 292.067 152.544 293.667 151.507C298.141 148.663 302.408 139.478 302.793 137.848C302.911 137.285 302.971 136.93 302.971 136.693C302.971 136.811 302.763 138.263 300.422 139.211C297.993 140.219 297.519 140.219 297.222 141.73C296.897 143.27 296.63 144.9 295.385 145.196C294.111 145.522 293.341 144.1 292.334 146.411C291.326 148.722 290.852 149.522 289.934 149.848C289.015 150.174 288.304 149.7 288.097 151.478C287.948 152.604 287.859 153.641 287.83 154.293Z" fill="#6FCBC1"/>
<path d="M274.615 200.041C280.363 200.041 282.793 195.448 283.771 190.559C278.141 188.426 271.03 184.989 265.134 179.833C264.748 183.3 263.622 200.041 274.615 200.041Z" fill="#ACE5DF"/>
<path d="M22.1706 200.841C26.2594 200.841 27.978 197.581 28.6594 194.115C29.4298 190.204 28.8669 186.055 28.8669 186.055H15.4743C15.4743 186.055 15.4446 186.204 15.415 186.5C15.178 188.929 14.378 200.841 22.1706 200.841Z" fill="#ACE5DF"/>
<path d="M15.4741 186.026C15.4741 186.322 18.4667 186.559 22.1704 186.559C25.8741 186.559 28.8667 186.322 28.8667 186.026C28.8667 185.729 25.8741 185.492 22.1704 185.492C18.4667 185.492 15.4741 185.729 15.4741 186.026Z" fill="#ACE5DF"/>
<path d="M0.185303 141.522C0.185303 141.522 8.65938 154.411 13.726 162.263C18.7927 170.115 20.126 171.744 20.7483 174.292C21.3409 176.841 21.9038 186.204 21.9038 186.204H22.5557C22.5557 186.204 22.9705 178.292 22.2001 175.685C21.4001 173.078 21.726 172.07 22.0816 169.344C22.4372 166.618 22.9409 162.263 20.1853 159.241C17.4297 156.218 18.1705 153.255 17.1927 151.27C16.2149 149.285 8.71864 146.855 7.77049 144.811C6.79271 142.707 2.55567 141.463 0.185303 141.522Z" fill="#4BB9AD"/>
<path d="M2.052 141.522C2.052 141.522 4.71867 144.544 6.52608 145.581C8.33348 146.618 9.19274 145.7 10.5853 148.189C11.9779 150.678 12.0372 151.744 13.3113 153.018C14.5853 154.292 16.0964 154.352 16.215 157.137C16.3335 159.922 15.6224 162.263 15.6224 162.263C15.6224 162.263 2.58534 142.174 2.052 141.522Z" fill="#6FCBC1"/>
<path d="M24.7186 186.026L25.1926 185.878C25.1926 185.878 24.363 182.559 25.1926 180.544C25.726 179.27 28.9556 177.018 32.0667 174.559C33.7852 173.196 35.4741 171.774 36.6593 170.411C39.9778 166.559 41.3704 156.989 41.2815 155.389C41.2519 154.826 41.1926 154.5 41.1334 154.292C41.0149 153.878 40.7778 153.878 40.3037 153.581C40.0667 153.433 39.5926 153.641 39.0297 154.026C37.4297 155.092 36.2741 156.752 35.8297 158.648C35.4149 160.396 34.6149 162.648 33.0445 163.596C30.3778 165.255 30.763 165.641 30.5852 168.929C30.4075 172.189 27.8593 173.492 25.5186 177.996C23.1778 182.47 24.7186 186.026 24.7186 186.026Z" fill="#4BB9AD"/>
<path d="M32.0669 174.589C33.7854 173.226 35.4743 171.803 36.6595 170.441C39.978 166.589 41.3706 157.018 41.2817 155.418C41.2521 154.855 41.1928 154.529 41.1335 154.322C41.1632 154.411 41.3706 155.803 39.4743 157.344C37.5187 158.915 37.1039 159.063 37.2224 160.544C37.3409 162.026 37.5483 163.596 36.4817 164.248C35.415 164.9 34.2891 163.803 34.0224 166.203C33.7261 168.603 33.5187 169.463 32.7483 169.996C31.978 170.529 31.2076 170.292 31.5335 172.011C31.7113 173.018 31.9187 173.966 32.0669 174.589Z" fill="#6FCBC1"/>
<path d="M22.1706 200.841C26.2594 200.841 27.978 197.581 28.6594 194.115C24.6594 192.604 19.5928 190.144 15.415 186.47C15.178 188.929 14.378 200.841 22.1706 200.841Z" fill="#ACE5DF"/>
<path d="M26.4965 33.0481L25.9631 42.2629L34.2002 38.1148L26.4965 33.0481Z" fill="#FFBE55"/>
<path d="M284.956 80.7815H278.23L281.608 86.5889L284.956 80.7815Z" fill="#FFBE55"/>
<path d="M51.3557 132.722H41.252L46.3186 141.433L51.3557 132.722Z" fill="#FFBE55"/>
<path d="M88.1334 3.65306L85.0627 7.06812L94.4486 15.5073L97.5192 12.0923L88.1334 3.65306Z" fill="#4BB9AD"/>
<path d="M258.593 108.975L255 106.114L249.186 113.415L252.778 116.276L258.593 108.975Z" fill="#4BB9AD"/>
<path d="M208.809 1.44649L204.732 3.55908L208.289 10.4255L212.367 8.31291L208.809 1.44649Z" fill="#4BB9AD"/>
</svg>
