<svg width="190" height="188" viewBox="0 0 190 188" fill="none" xmlns="http://www.w3.org/2000/svg">
<g clip-path="url(#clip0_191_1330)">
<path d="M127.716 19.6673C133.146 19.7298 138.576 20.8993 143.495 23.2196C146.987 24.8666 150.157 27.0243 152.695 29.7532C157.771 35.213 159.776 43.2038 156.312 49.2015C153.42 54.2069 147.057 57.7947 146.982 63.5569C146.893 70.2697 155.4 74.7435 162.814 76.1319C170.228 77.5203 178.545 77.7851 184.112 82.5695C188.903 86.6868 190.181 93.2829 188.588 98.8032C186.996 104.326 182.965 108.92 178.476 112.848C167.23 122.69 152.795 129.161 138.001 134.264C106.74 145.046 72.8333 150.302 38.6808 149.66C30.1531 149.499 20.6302 148.578 14.6508 142.82C8.62141 137.016 8.42779 127.818 12.3731 121.17C16.3184 114.522 23.5803 110.054 31.1649 106.8C38.7495 103.546 46.8858 101.272 54.2685 97.6921C59.8419 94.9903 65.561 89.8243 63.1918 84.2852C61.5095 80.3514 56.569 78.4522 52.2198 76.8532C46.0759 74.5913 39.957 71.9625 34.9353 67.9869C29.9116 64.0113 26.0579 58.4973 25.6748 52.6496C25.3167 47.1897 28.0211 41.9821 32.0144 38.0733C36.0096 34.1644 41.2125 31.4084 46.5444 29.0548C67.6034 19.7632 113.057 19.4942 127.716 19.6673Z" fill="#F8F8F8"/>
<path d="M136.462 187.881H57.2852C50.6375 187.881 45.2473 182.484 45.2473 175.827V12.7627C45.2473 6.1062 50.6375 0.708862 57.2852 0.708862H136.462C143.11 0.708862 148.5 6.1062 148.5 12.7627V175.827C148.5 182.484 143.112 187.881 136.462 187.881Z" fill="#ACE6DF"/>
<path d="M135.465 182.177H58.2846C54.231 182.177 50.9436 178.888 50.9436 174.827V14.1199C50.9436 10.0609 54.2289 6.76917 58.2846 6.76917H135.465C139.519 6.76917 142.806 10.0589 142.806 14.1199V174.827C142.804 178.886 139.519 182.177 135.465 182.177Z" fill="white"/>
<path d="M67.4993 6.05615L72.3044 12.1811C74.224 14.6285 77.0451 16.0378 80.0181 16.0378H113.371C116.344 16.0378 119.165 14.6264 121.085 12.1811L125.89 6.05615H67.4993Z" fill="#ACE6DF"/>
<path d="M64.8948 15.3019H57.8161C56.3795 15.3019 55.2136 14.1344 55.2136 12.696C55.2136 11.2575 56.3795 10.0901 57.8161 10.0901H64.8948C66.3313 10.0901 67.4972 11.2575 67.4972 12.696C67.4972 14.1344 66.3313 15.3019 64.8948 15.3019Z" stroke="#ACE6DF" stroke-miterlimit="10"/>
<path d="M122.982 15.1976H128.603V11.0282L122.982 15.1976Z" stroke="#ACE6DF" stroke-miterlimit="10"/>
<path d="M136.621 15.1976H131.411C130.666 15.1976 130.06 14.5931 130.06 13.8447V12.3812C130.06 11.6349 130.664 11.0282 131.411 11.0282H136.621C137.366 11.0282 137.972 11.6328 137.972 12.3812V13.8447C137.972 14.5931 137.368 15.1976 136.621 15.1976Z" stroke="#ACE6DF" stroke-miterlimit="10"/>
<path d="M138.7 12.1748H137.868V14.2595H138.7V12.1748Z" fill="#ACE6DF"/>
<path d="M57.7517 40.0767H136.056C137.441 40.0767 138.561 41.2003 138.561 42.5846V86.766C138.561 88.1524 137.439 89.274 136.056 89.274H57.7517C56.3672 89.274 55.2471 88.1503 55.2471 86.766V42.5846C55.2471 41.2003 56.3672 40.0767 57.7517 40.0767Z" fill="#4BB9AD"/>
<path d="M83.9449 43.4122H58.5449V48.624H83.9449V43.4122Z" fill="#ACE6DF"/>
<path d="M117.762 48.624H116.184C114.747 48.624 113.582 47.4566 113.582 46.0181C113.582 44.5797 114.747 43.4122 116.184 43.4122H117.762C119.199 43.4122 120.365 44.5797 120.365 46.0181C120.365 47.4566 119.199 48.624 117.762 48.624Z" fill="#F8F8F8"/>
<path d="M132.478 48.624H124.246C122.809 48.624 121.643 47.4566 121.643 46.0181C121.643 44.5797 122.809 43.4122 124.246 43.4122H132.478C133.914 43.4122 135.08 44.5797 135.08 46.0181C135.08 47.4566 133.916 48.624 132.478 48.624Z" fill="#F8F8F8"/>
<path d="M110.146 47.0792C110.35 47.2731 110.681 47.4357 110.985 47.4357C111.241 47.4357 111.479 47.3023 111.479 47.0271C111.479 46.458 109.876 46.5142 109.876 45.4927C109.876 45.0028 110.24 44.6234 110.767 44.5379V44.0918H111.171V44.5296C111.475 44.5525 111.768 44.663 112.006 44.8756L111.739 45.3739C111.554 45.2134 111.264 45.08 111 45.08C110.715 45.08 110.488 45.2467 110.488 45.4844C110.488 46.0493 112.091 45.9493 112.091 47.0125C112.091 47.4961 111.754 47.911 111.171 47.9861V48.4238H110.767V47.9861C110.425 47.9485 110.061 47.7963 109.817 47.5399L110.146 47.0792Z" fill="#F8F8F8"/>
<path d="M59.0029 83.9309C59.0029 83.5598 59.2923 83.27 59.6587 83.27C60.0293 83.27 60.3187 83.5598 60.3187 83.9309C60.3187 84.2978 60.0293 84.5876 59.6587 84.5876C59.2923 84.5876 59.0029 84.2978 59.0029 83.9309Z" fill="white"/>
<path d="M61.6304 83.9309C61.6304 83.5598 61.9198 83.27 62.2862 83.27C62.6568 83.27 62.9462 83.5598 62.9462 83.9309C62.9462 84.2978 62.6568 84.5876 62.2862 84.5876C61.9198 84.5876 61.6304 84.2978 61.6304 83.9309Z" fill="white"/>
<path d="M64.2578 83.9309C64.2578 83.5598 64.5472 83.27 64.9136 83.27C65.2842 83.27 65.5736 83.5598 65.5736 83.9309C65.5736 84.2978 65.2842 84.5876 64.9136 84.5876C64.5472 84.5876 64.2578 84.2978 64.2578 83.9309Z" fill="white"/>
<path d="M66.8872 83.9309C66.8872 83.5598 67.1766 83.27 67.543 83.27C67.9136 83.27 68.203 83.5598 68.203 83.9309C68.203 84.2978 67.9136 84.5876 67.543 84.5876C67.1745 84.5876 66.8872 84.2978 66.8872 83.9309Z" fill="white"/>
<path d="M71.8653 82.1276C72.7751 82.1276 73.0937 82.8114 73.0937 83.7474C73.0937 84.6939 72.7751 85.3756 71.8653 85.3756C70.9555 85.3756 70.637 84.6918 70.637 83.7474C70.637 82.8093 70.9576 82.1276 71.8653 82.1276ZM71.8653 82.828C71.424 82.828 71.3719 83.2575 71.3719 83.7474C71.3719 84.2561 71.424 84.6751 71.8653 84.6751C72.3067 84.6751 72.3588 84.254 72.3588 83.7474C72.3608 83.2554 72.3067 82.828 71.8653 82.828Z" fill="white"/>
<path d="M75.1549 82.1276C76.0647 82.1276 76.3832 82.8114 76.3832 83.7474C76.3832 84.6939 76.0647 85.3756 75.1549 85.3756C74.2451 85.3756 73.9265 84.6918 73.9265 83.7474C73.9265 82.8093 74.2451 82.1276 75.1549 82.1276ZM75.1549 82.828C74.7135 82.828 74.6614 83.2575 74.6614 83.7474C74.6614 84.2561 74.7135 84.6751 75.1549 84.6751C75.5962 84.6751 75.6483 84.254 75.6483 83.7474C75.6483 83.2554 75.5962 82.828 75.1549 82.828Z" fill="white"/>
<path d="M78.4422 82.1276C79.352 82.1276 79.6706 82.8114 79.6706 83.7474C79.6706 84.6939 79.352 85.3756 78.4422 85.3756C77.5324 85.3756 77.2139 84.6918 77.2139 83.7474C77.2139 82.8093 77.5324 82.1276 78.4422 82.1276ZM78.4422 82.828C78.0008 82.828 77.9488 83.2575 77.9488 83.7474C77.9488 84.2561 78.0008 84.6751 78.4422 84.6751C78.8836 84.6751 78.9356 84.254 78.9356 83.7474C78.9356 83.2554 78.8836 82.828 78.4422 82.828Z" fill="white"/>
<path d="M81.7296 82.1276C82.6394 82.1276 82.9579 82.8114 82.9579 83.7474C82.9579 84.6939 82.6394 85.3756 81.7296 85.3756C80.8198 85.3756 80.5012 84.6918 80.5012 83.7474C80.5012 82.8093 80.8198 82.1276 81.7296 82.1276ZM81.7296 82.828C81.2882 82.828 81.2362 83.2575 81.2362 83.7474C81.2362 84.2561 81.2882 84.6751 81.7296 84.6751C82.171 84.6751 82.223 84.254 82.223 83.7474C82.223 83.2554 82.171 82.828 81.7296 82.828Z" fill="white"/>
<path d="M135.07 81.0102C135.07 83.4201 133.117 85.3756 130.71 85.3756C129.455 85.3756 128.324 84.844 127.529 83.9955C128.262 83.2137 128.709 82.1651 128.709 81.0102C128.709 79.8552 128.262 78.8045 127.529 78.0249C128.324 77.1764 129.455 76.6448 130.71 76.6448C133.117 76.6448 135.07 78.5982 135.07 81.0102Z" fill="#FFBE55"/>
<path d="M128.709 81.0102C128.709 82.1652 128.262 83.2138 127.529 83.9955C126.798 83.2138 126.35 82.1652 126.35 81.0102C126.35 79.8553 126.798 78.8046 127.529 78.0249C128.262 78.8046 128.709 79.8553 128.709 81.0102Z" fill="#FF683F"/>
<path d="M126.35 81.0102C126.35 82.1651 126.798 83.2137 127.529 83.9955C126.733 84.844 125.603 85.3756 124.35 85.3756C121.943 85.3756 119.99 83.4201 119.99 81.0102C119.99 78.5982 121.943 76.6448 124.35 76.6448C125.605 76.6448 126.736 77.1764 127.529 78.0249C126.798 78.8045 126.35 79.8552 126.35 81.0102Z" fill="#FF683F"/>
<path d="M70.7097 28.8317C70.6494 28.9776 70.589 29.1235 70.5286 29.2694C69.9977 30.5849 69.4647 31.8983 68.938 33.2137C68.736 33.7162 68.5466 34.2207 68.33 34.7168C68.0927 35.2588 67.8241 35.7842 67.4827 36.272C67.2433 36.616 66.9455 36.8995 66.6062 37.1455C66.398 37.2977 66.1669 37.4061 65.9316 37.5062C65.915 37.5124 65.8983 37.5229 65.8817 37.5312C65.8712 37.5312 65.8608 37.5312 65.8504 37.5312C65.7901 37.3873 65.7297 37.2414 65.6672 37.0976C65.6485 37.0559 65.6547 37.0371 65.6964 37.0163C65.915 36.9162 66.1294 36.8057 66.3272 36.6681C66.6103 36.4722 66.8414 36.2241 67.0559 35.9593C67.3453 35.6028 67.568 35.2088 67.7304 34.7794C67.7762 34.6584 67.77 34.5459 67.7221 34.427C67.2349 33.2054 66.7478 31.9817 66.2627 30.76C66.0128 30.1325 65.763 29.505 65.5132 28.8775C65.4882 28.8129 65.4902 28.8108 65.559 28.8108C65.7297 28.8108 65.9025 28.8129 66.0732 28.8108C66.1169 28.8108 66.1398 28.8233 66.1565 28.865C66.6686 30.1492 67.1829 31.4334 67.695 32.7197C67.8533 33.1178 67.9865 33.5244 68.1156 33.933C68.1219 33.9517 68.1198 33.9851 68.1447 33.983C68.1656 33.983 68.1656 33.9517 68.1697 33.933C68.3738 33.2784 68.6215 32.6384 68.863 31.9963C69.2544 30.9581 69.6458 29.9178 70.0352 28.8775C70.0539 28.8296 70.0747 28.8087 70.1289 28.8108C70.3204 28.815 70.5119 28.8129 70.7035 28.815C70.7097 28.8192 70.7097 28.8254 70.7097 28.8317Z" fill="#3E3A39"/>
<path d="M55.5342 30.6412C55.5342 29.2861 55.5342 27.9311 55.5342 26.576C55.5342 26.4926 55.5342 26.4926 55.6195 26.4822C55.8569 26.4509 56.0921 26.4155 56.3295 26.3863C56.5023 26.3655 56.6772 26.3529 56.8521 26.3425C57.0623 26.33 57.2726 26.3258 57.4829 26.3321C58.0159 26.3488 58.5343 26.4259 59.0194 26.6636C59.6773 26.9846 60.0541 27.5162 60.177 28.2313C60.2457 28.6274 60.229 29.0214 60.1291 29.4091C59.9708 30.0158 59.6211 30.4849 59.0902 30.8163C58.705 31.0582 58.2803 31.1853 57.8347 31.252C57.5703 31.2916 57.3018 31.3083 57.0353 31.3C56.7542 31.2916 56.4731 31.2791 56.1983 31.2229C56.1463 31.2124 56.1442 31.2374 56.1442 31.2771C56.1442 32.4153 56.1442 33.5536 56.1442 34.6897C56.1442 34.8086 56.1546 34.8002 56.0318 34.8002C55.8902 34.8002 55.7486 34.8002 55.607 34.8002C55.5342 34.8002 55.5342 34.8002 55.5342 34.7273C55.5342 33.8246 55.5342 32.9198 55.5342 32.0171C55.5342 31.5585 55.5342 31.0999 55.5342 30.6412ZM56.1442 28.8129C56.1442 29.4112 56.1442 30.0095 56.1421 30.6079C56.1421 30.6641 56.1588 30.6871 56.2129 30.6996C56.496 30.7705 56.7854 30.7767 57.0748 30.7892C57.2747 30.7976 57.4746 30.783 57.6744 30.7621C58.0325 30.7267 58.3719 30.635 58.6863 30.4578C59.0402 30.2597 59.2984 29.9762 59.4441 29.5968C59.5982 29.1965 59.6252 28.7837 59.5607 28.3626C59.4878 27.8706 59.2484 27.4787 58.8195 27.2139C58.4364 26.9784 58.0138 26.8804 57.5724 26.8512C57.3746 26.8387 57.1768 26.8408 56.977 26.8491C56.7209 26.8574 56.4669 26.8866 56.215 26.9283C56.1421 26.9408 56.1421 26.9408 56.1421 27.018C56.1442 27.6184 56.1442 28.2167 56.1442 28.8129Z" fill="#3E3A39"/>
<path d="M64.9759 32.2923C64.9759 32.7885 64.9738 33.2221 64.9759 33.6557C64.978 33.983 64.9843 34.3103 65.0363 34.6335C65.0425 34.6731 65.0488 34.7127 65.0571 34.7523C65.0634 34.7836 65.053 34.8002 65.0176 34.8002C64.8573 34.8002 64.6969 34.8002 64.5387 34.8002C64.4929 34.8002 64.4887 34.7731 64.4867 34.7377C64.4617 34.4917 64.4346 34.2457 64.4075 33.9997C64.4055 33.9851 64.4117 33.9643 64.3951 33.9601C64.3742 33.9538 64.3701 33.9768 64.3597 33.9893C64.012 34.4625 63.5539 34.7711 62.9772 34.8857C62.5213 34.9774 62.0716 34.9566 61.6427 34.7627C61.2388 34.5813 60.9557 34.2811 60.8141 33.8579C60.6413 33.343 60.6829 32.8406 60.9328 32.359C61.0743 32.0859 61.2908 31.8754 61.5428 31.7023C61.8717 31.4751 62.2381 31.3438 62.6233 31.2562C62.8898 31.1937 63.1625 31.1561 63.4353 31.1311C63.7143 31.1061 63.9932 31.0999 64.2722 31.0957C64.3659 31.0936 64.3659 31.0957 64.3659 31.0019C64.3638 30.7058 64.3472 30.4119 64.2556 30.1284C64.0911 29.6197 63.7476 29.2945 63.2167 29.2132C62.6129 29.1194 62.0424 29.2424 61.5074 29.5384C61.4657 29.5613 61.4262 29.5864 61.3866 29.6114C61.3616 29.626 61.3491 29.6218 61.3367 29.5947C61.2846 29.4717 61.2305 29.3508 61.1763 29.2299C61.1618 29.1965 61.1701 29.1777 61.1992 29.159C61.4782 28.9755 61.778 28.8442 62.1028 28.765C62.4318 28.6858 62.7649 28.6607 63.1001 28.6753C63.5477 28.6962 63.9578 28.8213 64.3014 29.1215C64.5699 29.355 64.7448 29.6489 64.8448 29.9866C64.9218 30.2472 64.9572 30.5161 64.9697 30.7892C64.9884 31.3146 64.9676 31.8358 64.9759 32.2923ZM64.3638 32.2861C64.3638 32.0776 64.3617 31.867 64.3638 31.6586C64.3638 31.6106 64.3513 31.596 64.3014 31.5939C64.0328 31.5939 63.7663 31.6023 63.4998 31.6231C63.2229 31.6461 62.9481 31.6815 62.6795 31.7565C62.3693 31.842 62.0757 31.965 61.8238 32.1735C61.6198 32.3424 61.4678 32.5446 61.4033 32.8052C61.3512 33.0115 61.3471 33.2179 61.372 33.4264C61.3908 33.5869 61.4324 33.7412 61.5157 33.8809C61.6614 34.1227 61.8842 34.2666 62.1424 34.3562C62.3797 34.4396 62.6254 34.4354 62.8711 34.4C63.4207 34.3208 63.8496 34.0518 64.1452 33.5744C64.293 33.3347 64.3701 33.0762 64.3659 32.7927C64.3617 32.628 64.3638 32.457 64.3638 32.2861Z" fill="#3E3A39"/>
<path d="M55.2471 103.058H138.561" stroke="#F8F8F8" stroke-width="2" stroke-miterlimit="10" stroke-linecap="round"/>
<path d="M96.9028 97.7525C96.8258 97.7525 96.7467 97.74 96.6696 97.7149L91.1295 95.8408C90.8256 95.7386 90.634 95.4551 90.634 95.1507C90.634 95.0736 90.6465 94.9944 90.6715 94.9172C90.8006 94.5357 91.2128 94.3314 91.5959 94.4586L96.9028 96.2535L102.21 94.4586C102.593 94.3294 103.005 94.5357 103.134 94.9172C103.263 95.2988 103.057 95.7136 102.676 95.8429L97.1423 97.7129C97.0673 97.74 96.9861 97.7525 96.9028 97.7525Z" fill="#F8F8F8"/>
<path d="M132.904 157.949H60.5393C57.7974 157.949 55.5759 155.722 55.5759 152.979V115.406C55.5759 112.66 57.7995 110.436 60.5393 110.436H132.904C135.646 110.436 137.868 112.662 137.868 115.406V152.979C137.868 155.724 135.644 157.949 132.904 157.949Z" stroke="#ACE5DF" stroke-miterlimit="10" stroke-linecap="round"/>
<path d="M137.868 141.311V152.979C137.868 155.724 135.644 157.949 132.904 157.949H60.5393C57.7974 157.949 55.5759 155.724 55.5759 152.979V141.311H137.868Z" fill="#6FCBC1" stroke="#6FCBC1" stroke-miterlimit="10" stroke-linecap="round"/>
<path d="M66.8873 134.152C70.8772 134.152 74.1117 130.913 74.1117 126.918C74.1117 122.922 70.8772 119.684 66.8873 119.684C62.8973 119.684 59.6628 122.922 59.6628 126.918C59.6628 130.913 62.8973 134.152 66.8873 134.152Z" fill="#6FCBC1" stroke="#6FCBC1" stroke-miterlimit="10" stroke-linecap="round"/>
<path d="M71.7506 182.177C73.2017 180.858 74.1116 178.95 74.1116 176.832C74.1116 172.836 70.8762 169.596 66.8871 169.596C62.896 169.596 59.6606 172.836 59.6606 176.832C59.6606 178.95 60.5705 180.858 62.0216 182.177H71.7506Z" fill="#ACE5DF"/>
<path d="M133.275 123.299H84.03C83.0369 123.299 82.2229 122.486 82.2229 121.489C82.2229 120.495 83.0349 119.68 84.03 119.68H133.275C134.268 119.68 135.082 120.493 135.082 121.489C135.08 122.486 134.268 123.299 133.275 123.299Z" fill="#ACE5DF"/>
<path d="M131.468 134.152H85.8351C83.8489 134.152 82.2229 132.524 82.2229 130.535C82.2229 128.546 83.8489 126.918 85.8351 126.918H131.468C133.454 126.918 135.08 128.546 135.08 130.535C135.08 132.524 133.456 134.152 131.468 134.152Z" fill="#F8F8F8"/>
<path d="M131.468 179.505H85.8351C83.8489 179.505 82.2229 177.877 82.2229 175.888C82.2229 173.899 83.8489 172.271 85.8351 172.271H131.468C133.454 172.271 135.08 173.899 135.08 175.888C135.08 177.877 133.456 179.505 131.468 179.505Z" fill="#F8F8F8"/>
<path d="M55.2471 181.519V168.629C55.2471 167.253 56.3713 166.127 57.7454 166.127H135.369C136.743 166.127 137.868 167.253 137.868 168.629V181.775" stroke="#ACE5DF" stroke-miterlimit="10" stroke-linecap="round"/>
<path d="M47.956 146.81H9.7124V187.085H47.956V146.81Z" fill="#6FCBC1"/>
<path fill-rule="evenodd" clip-rule="evenodd" d="M28.8352 141.065C31.446 141.065 33.8111 142.124 35.5225 143.837C37.2338 145.551 38.2915 147.919 38.2915 150.533H37.2567C37.2567 148.205 36.3136 146.095 34.7896 144.569C33.2656 143.043 31.1587 142.099 28.8331 142.099C26.5076 142.099 24.4006 143.043 22.8766 144.569C21.3526 146.095 20.4095 148.205 20.4095 150.533H19.3748C19.3748 147.919 20.4324 145.551 22.1438 143.837C23.8593 142.124 26.2223 141.065 28.8352 141.065Z" fill="#3E3A39"/>
<path fill-rule="evenodd" clip-rule="evenodd" d="M20.0078 152.441C20.6449 152.441 21.1654 151.92 21.1654 151.282C21.1654 150.644 20.6469 150.123 20.0078 150.123C19.3707 150.123 18.8523 150.644 18.8523 151.282C18.8523 151.92 19.3707 152.441 20.0078 152.441Z" fill="#3E3A39"/>
<path fill-rule="evenodd" clip-rule="evenodd" d="M37.6607 152.441C38.2978 152.441 38.8162 151.92 38.8162 151.282C38.8162 150.644 38.2957 150.123 37.6607 150.123C37.0237 150.123 36.5032 150.644 36.5032 151.282C36.5032 151.92 37.0237 152.441 37.6607 152.441Z" fill="#3E3A39"/>
<path d="M27.4404 158.718H0.503906V187.085H27.4404V158.718Z" fill="#FFBE55"/>
<path fill-rule="evenodd" clip-rule="evenodd" d="M13.9722 154.669C15.8106 154.669 17.4762 155.416 18.6816 156.623C19.8871 157.83 20.6324 159.498 20.6324 161.338H19.9037C19.9037 159.698 19.2396 158.213 18.1653 157.138C17.091 156.062 15.6086 155.397 13.9701 155.397C12.3316 155.397 10.8493 156.062 9.77499 157.138C8.70069 158.213 8.03655 159.698 8.03655 161.338H7.30786C7.30786 159.498 8.0532 157.83 9.25866 156.623C10.4683 155.418 12.1339 154.669 13.9722 154.669Z" fill="#3E3A39"/>
<path fill-rule="evenodd" clip-rule="evenodd" d="M7.75545 162.683C8.20516 162.683 8.57158 162.316 8.57158 161.868C8.57158 161.42 8.20516 161.053 7.75545 161.053C7.30783 161.053 6.94141 161.42 6.94141 161.868C6.94141 162.316 7.30783 162.683 7.75545 162.683Z" fill="#3E3A39"/>
<path fill-rule="evenodd" clip-rule="evenodd" d="M20.189 162.683C20.6367 162.683 21.0031 162.316 21.0031 161.868C21.0031 161.42 20.6367 161.053 20.189 161.053C19.7414 161.053 19.375 161.42 19.375 161.868C19.375 162.316 19.7414 162.683 20.189 162.683Z" fill="#3E3A39"/>
</g>
<defs>
<clipPath id="clip0_191_1330">
<rect width="190" height="188" fill="white"/>
</clipPath>
</defs>
</svg>
